<svg width="28" height="29" viewBox="0 0 28 29" fill="none" xmlns="http://www.w3.org/2000/svg">
<path fill-rule="evenodd" clip-rule="evenodd" d="M14 0.833328C10.1325 0.833328 7 3.89124 7 7.66666C7 11.4421 10.1325 14.5 14 14.5C17.8675 14.5 21 11.4421 21 7.66666C21 3.89124 17.8675 0.833328 14 0.833328ZM17.5 7.66666C17.5 5.7875 15.925 4.25 14 4.25C12.075 4.25 10.5 5.7875 10.5 7.66666C10.5 9.54583 12.075 11.0833 14 11.0833C15.925 11.0833 17.5 9.54583 17.5 7.66666ZM24.5 23.0417C24.15 21.8287 18.725 19.625 14 19.625C9.275 19.625 3.85 21.8287 3.5 23.0587V24.75H24.5V23.0417ZM0 23.0416C0 18.4975 9.3275 16.2083 14 16.2083C18.6725 16.2083 28 18.4975 28 23.0416V28.1666H0V23.0416Z" fill="white"/>
</svg>
