<svg width="123" height="123" viewBox="0 0 123 123" fill="none" xmlns="http://www.w3.org/2000/svg">
<path fill-rule="evenodd" clip-rule="evenodd" d="M107.625 15.375H15.375C10.25 15.375 5.125 20.5 5.125 25.625V97.375C5.125 103.012 9.7375 107.625 15.375 107.625H107.625C112.75 107.625 117.875 102.5 117.875 97.375V25.625C117.875 20.5 112.75 15.375 107.625 15.375ZM107.625 96.965C107.554 97.0722 107.432 97.1794 107.331 97.2692L107.331 97.2693C107.286 97.3083 107.246 97.344 107.215 97.375H15.375V26.035L15.785 25.625H107.164C107.271 25.6965 107.378 25.8178 107.468 25.9194C107.507 25.9635 107.543 26.004 107.574 26.035V96.965H107.625ZM43.5625 64.0625L56.375 79.4888L74.3125 56.375L97.375 87.125H25.625L43.5625 64.0625Z" fill="black" fill-opacity="0.1"/>
</svg>
