<svg width="15" height="15" viewBox="0 0 15 15" fill="none" xmlns="http://www.w3.org/2000/svg">
<path fill-rule="evenodd" clip-rule="evenodd" d="M9.84708 9.28521H10.4725L14.4229 13.2435L13.2433 14.4231L9.28499 10.4727V9.84729L9.07124 9.62562C8.16874 10.4015 6.99708 10.8685 5.72249 10.8685C2.88041 10.8685 0.57666 8.56479 0.57666 5.72271C0.57666 2.88062 2.88041 0.576874 5.72249 0.576874C8.56458 0.576874 10.8683 2.88062 10.8683 5.72271C10.8683 6.99729 10.4012 8.16896 9.62541 9.07146L9.84708 9.28521ZM2.15955 5.72271C2.15955 7.69396 3.7508 9.28521 5.72205 9.28521C7.6933 9.28521 9.28455 7.69396 9.28455 5.72271C9.28455 3.75146 7.6933 2.16021 5.72205 2.16021C3.7508 2.16021 2.15955 3.75146 2.15955 5.72271Z" fill="black" fill-opacity="0.54"/>
</svg>
