<svg width="15" height="10" viewBox="0 0 15 10" fill="none" xmlns="http://www.w3.org/2000/svg">
<path fill-rule="evenodd" clip-rule="evenodd" d="M0 5C1.17955 2.07333 4.09091 0 7.5 0C10.9091 0 13.8205 2.07333 15 5C13.8205 7.92667 10.9091 10 7.5 10C4.09091 10 1.17955 7.92667 0 5ZM13.5131 5C12.3881 2.75333 10.0836 1.33333 7.49949 1.33333C4.9154 1.33333 2.61085 2.75333 1.48585 5C2.61085 7.24666 4.9154 8.66666 7.49949 8.66666C10.0836 8.66666 12.3881 7.24666 13.5131 5ZM7.49999 3.33333C8.4409 3.33333 9.20453 4.08 9.20453 5C9.20453 5.92 8.4409 6.66666 7.49999 6.66666C6.55908 6.66666 5.79544 5.92 5.79544 5C5.79544 4.08 6.55908 3.33333 7.49999 3.33333ZM4.43167 5C4.43167 3.34667 5.80894 2 7.49985 2C9.19076 2 10.568 3.34667 10.568 5C10.568 6.65333 9.19076 8 7.49985 8C5.80894 8 4.43167 6.65333 4.43167 5Z" fill="black" fill-opacity="0.54"/>
</svg>
